<svg width="22" height="26" viewBox="0 0 22 26" fill="none" xmlns="http://www.w3.org/2000/svg">
<path d="M12.5404 24.8717C16.4478 24.0884 21.4999 21.2776 21.4999 14.0091C21.4999 7.39456 16.6583 2.98997 13.1768 0.966118C12.4043 0.517019 11.4999 1.10763 11.4999 2.00121V4.28681C11.4999 6.08913 10.7421 9.37894 8.63653 10.7473C7.56153 11.4459 6.40053 10.4003 6.26988 9.12491L6.16259 8.07761C6.03788 6.86009 4.79789 6.12099 3.82483 6.86331C2.07672 8.19686 0.249878 10.5321 0.249878 14.0091C0.249878 22.8979 6.86099 25.1202 10.1665 25.1202C10.3588 25.1202 10.5609 25.1144 10.7713 25.1023C9.139 24.9628 6.49988 23.9501 6.49988 20.6753C6.49988 18.1137 8.36872 16.3807 9.78863 15.5383C10.1705 15.3117 10.6175 15.6059 10.6175 16.0499V16.7864C10.6175 17.3501 10.8355 18.2312 11.3544 18.8343C11.9416 19.5168 12.8035 18.8018 12.873 17.9042C12.895 17.6211 13.1798 17.4406 13.425 17.5839C14.2266 18.0524 15.2499 19.0532 15.2499 20.6753C15.2499 23.2353 13.8386 24.4129 12.5404 24.8717Z" fill="#00A6FF"/>
</svg>
